<svg width="170" height="14" viewBox="0 0 170 14" fill="none" xmlns="http://www.w3.org/2000/svg">
<path d="M0.34855 0.109626C0.0550341 0.200996 0.0183447 0.548204 0.0183447 4.2213V8.22333H1.7244C2.64164 8.22333 6.18217 8.27815 9.55759 8.33298C16.4919 8.4609 16.5286 8.4609 16.5286 9.66699C16.5286 10.1421 16.4002 10.471 16.1433 10.7086C15.7765 11.0375 15.2995 11.0558 7.92492 11.1472L0.110068 11.2386L0.0550341 12.4629L0 13.7056H7.99829H15.9966L16.8588 13.2487C18.6566 12.3167 19.0968 11.6223 19.0968 9.70354C19.0968 8.00404 18.6749 7.18171 17.3724 6.3411L16.4552 5.75633L9.64932 5.66496L2.86177 5.57359L2.80674 4.31267C2.77005 3.41724 2.82509 2.99694 2.99019 2.90557C3.1186 2.81419 6.80589 2.7411 11.1719 2.7411H19.1152L19.0602 1.44364L19.0051 0.1279L9.83277 0.0730782C4.78797 0.0548038 0.513652 0.0730772 0.34855 0.109626Z" fill="#0065FF" fill-opacity="0.9"/>
<path d="M59.8037 0.511657C59.2351 0.804042 58.5563 1.35227 58.2261 1.80912C57.6574 2.54008 57.6207 2.68628 57.6207 4.05683C57.6207 5.26293 57.6941 5.64668 58.0243 6.19491C58.5196 7.01724 58.7764 7.23653 59.8221 7.72993C60.6109 8.09541 60.9778 8.13196 66.8848 8.22333C70.3153 8.27815 73.2321 8.3878 73.3605 8.4609C73.7274 8.71673 73.9659 9.50252 73.8558 10.0873C73.6173 11.1289 73.4339 11.1472 65.1421 11.1472H57.6207V12.4264V13.7056H65.3255C70.9757 13.7056 73.2321 13.6507 73.7824 13.468C75.0115 13.1025 76.0021 12.0974 76.3874 10.8183C76.7176 9.74008 76.7176 9.70354 76.3507 8.49744C75.9471 7.23653 75.837 7.07206 74.6813 6.32282C73.599 5.62841 72.2415 5.48221 66.6463 5.48221C62.2986 5.48221 61.3447 5.42739 60.8311 5.18983C59.8588 4.73298 59.7854 3.59998 60.721 2.97866C61.1613 2.68628 61.8767 2.64973 68.9027 2.55836L76.6075 2.46699V1.27917V0.0913515L68.7009 0.0365295L60.7944 -1.90735e-05L59.8037 0.511657Z" fill="#404040"/>
<path d="M80.9919 0.255819C80.9368 0.383738 80.9185 0.950235 80.9552 1.48018L81.0102 2.46699L85.0461 2.55836L89.0819 2.64973L89.1369 8.16851L89.1736 13.7056H90.4577H91.7419L91.7786 8.16851L91.8336 2.64973L95.8144 2.59491L99.7769 2.55836L99.9053 1.46191C99.9787 0.877139 99.9787 0.292367 99.9053 0.200996C99.8319 0.0548038 96.7867 -1.90735e-05 90.4394 -1.90735e-05C82.6979 -1.90735e-05 81.0653 0.0365295 80.9919 0.255819Z" fill="#404040"/>
<path d="M127.514 6.94418V13.7239L128.762 13.6691L129.991 13.6142L130.046 11.0559C130.082 9.30154 130.156 8.46093 130.321 8.36956C130.449 8.29647 131.568 8.22337 132.852 8.22337C135.274 8.22337 135.586 8.31474 135.586 9.06398C135.586 9.28327 135.714 9.55738 135.861 9.6853C136.008 9.81322 136.136 10.0142 136.136 10.1422C136.136 10.2518 136.301 10.5442 136.485 10.7635C136.686 11.001 136.87 11.2569 136.907 11.33C137.035 11.6772 138.925 12.7736 139.842 13.0295C141.438 13.4863 143.309 13.7422 144.666 13.6691L145.951 13.6142L146.006 12.3899L146.061 11.1838L144.171 11.0924C141.841 10.9828 140.869 10.7817 139.75 10.2518C138.869 9.83149 138.227 8.97261 138.411 8.49748C138.466 8.33301 139.181 8.24164 141.034 8.18682C143.015 8.132 143.712 8.04063 144.208 7.78479C145.143 7.30966 146.006 6.41423 146.134 5.82946C146.207 5.53707 146.336 5.26296 146.427 5.20814C146.831 4.9523 146.391 2.64976 145.785 1.8457C145.675 1.69951 145.125 1.29748 144.575 0.931997L143.566 0.27413L135.549 0.219307L127.514 0.164485V6.94418ZM143.236 3.07007C144.061 3.5452 143.988 4.98885 143.107 5.42743C142.465 5.75636 130.633 5.77464 130.302 5.4457C130.174 5.31778 130.082 4.75129 130.082 4.16652C130.082 3.36245 130.156 3.08834 130.413 2.92388C130.89 2.63149 142.704 2.75941 143.236 3.07007Z" fill="#404040"/>
<path d="M150.959 0.365465C150.94 0.456836 150.922 3.50861 150.959 7.12689L150.995 13.7056H160.424H169.854L169.927 12.5177C169.945 11.8599 169.982 11.3117 169.982 11.2934C169.982 11.2751 166.276 11.202 161.727 11.1472L153.472 11.0558V9.77663V8.49744L158.847 8.44262L164.204 8.40607V7.52892C164.204 7.05379 164.259 6.48729 164.314 6.24973L164.424 5.8477H159.214C155.27 5.8477 153.93 5.79288 153.674 5.61014C153.417 5.42739 153.38 5.15328 153.417 4.20303L153.472 3.01521L154.573 2.86902C155.178 2.77765 158.773 2.75937 162.571 2.79592C166.368 2.85074 169.56 2.83247 169.689 2.75937C169.835 2.668 169.89 2.21115 169.854 1.44364L169.799 0.274095L160.406 0.219272C154.242 0.200998 151.014 0.237546 150.959 0.365465Z" fill="#404040"/>
<path d="M30.7458 0.45687C30.654 0.475144 30.067 0.603064 29.4616 0.730982C26.8383 1.29748 24.6553 2.9787 23.8848 5.06195C22.5457 8.64367 24.6186 12.0061 28.948 13.2853C29.8469 13.5594 30.9659 13.6142 36.1941 13.6691L42.3763 13.7239L42.4864 13.3036C42.5414 13.066 42.5598 11.3117 42.5414 9.41119L42.4864 5.9391L38.4138 5.88428L34.323 5.84773V7.01728C34.323 7.91271 34.3964 8.20509 34.6165 8.29647C34.7816 8.35129 35.8823 8.40611 37.0747 8.40611C38.2671 8.40611 39.3678 8.46093 39.5329 8.51575C39.753 8.60713 39.8264 8.89951 39.8264 9.79494C39.8264 10.9097 39.808 10.9828 39.3311 11.1655C38.634 11.4396 30.9842 11.2569 30.1037 10.9462C29.7551 10.8183 29.0947 10.599 28.6361 10.4345C28.1958 10.2883 27.5171 9.84977 27.1502 9.46601C25.6826 7.96753 25.811 5.79291 27.4621 4.4589C28.9847 3.21626 29.9202 3.05179 36.6161 2.94215L42.4864 2.83251V1.64469V0.45687L36.7078 0.420321C33.5342 0.402048 30.8558 0.420322 30.7458 0.45687Z" fill="#0065FF" fill-opacity="0.9"/>
<path d="M107.188 0.694361C105.959 1.0233 104.822 1.90045 104.693 2.63142C104.18 5.33599 104.106 7.69335 104.473 10.1055C104.73 11.8233 105.042 12.3532 106.143 12.938C107.372 13.5959 108.252 13.6873 113.572 13.6873C118.085 13.6873 118.965 13.6507 120.029 13.3583C121.607 12.938 122.066 12.6274 122.689 11.5675L123.203 10.6903V6.85274V3.01517L122.708 2.15629C122.341 1.55324 121.956 1.18776 121.332 0.877102C120.47 0.456798 120.341 0.456798 114.398 0.420249C109.188 0.383701 108.179 0.420249 107.188 0.694361ZM120.14 3.28929L120.745 3.65477L120.69 6.85274C120.635 9.59385 120.598 10.0873 120.323 10.3614C119.644 11.0192 118.617 11.1472 113.462 11.1472C108.05 11.1472 107.317 11.0375 107.078 10.1969C106.95 9.66695 106.931 4.42228 107.078 3.89233C107.188 3.50857 107.757 3.19792 108.619 3.05172C108.876 3.01517 111.426 2.96035 114.306 2.94208C119.259 2.9238 119.571 2.94208 120.14 3.28929Z" fill="#404040"/>
</svg>
