<svg width="44" height="45" viewBox="0 0 44 45" fill="none" xmlns="http://www.w3.org/2000/svg">
<g clip-path="url(#clip0_131_3194)">
<path d="M43.3417 27.325C40.4031 39.1121 28.4647 46.2856 16.6761 43.3462C4.89249 40.4076 -2.28094 28.4684 0.658942 16.6822C3.59624 4.89377 15.5347 -2.2802 27.3196 0.658389C39.1073 3.59698 46.2803 15.5375 43.3414 27.3252L43.3416 27.325H43.3417Z" fill="#F7931A"/>
<path d="M31.7021 18.8674C32.14 15.9393 29.9108 14.3654 26.8625 13.3154L27.8514 9.3491L25.437 8.74749L24.4744 12.6094C23.8396 12.4511 23.1878 12.3019 22.5399 12.154L23.5096 8.26665L21.0967 7.66504L20.1072 11.63C19.582 11.5105 19.0661 11.3923 18.5656 11.2677L18.5684 11.2552L15.2388 10.4238L14.5966 13.0026C14.5966 13.0026 16.3879 13.4132 16.3501 13.4384C17.3278 13.6825 17.5046 14.3297 17.4753 14.8427L16.3488 19.3612C16.4161 19.3783 16.5035 19.403 16.5998 19.4418C16.5193 19.4218 16.4336 19.3999 16.3446 19.3786L14.7657 25.7085C14.6463 26.0055 14.343 26.4513 13.6594 26.282C13.6836 26.3171 11.9046 25.8441 11.9046 25.8441L10.7059 28.6078L13.8478 29.3911C14.4323 29.5377 15.0051 29.691 15.5692 29.8352L14.5701 33.847L16.9817 34.4486L17.9711 30.4794C18.63 30.6583 19.2693 30.8233 19.8953 30.9788L18.9092 34.9293L21.3237 35.5309L22.3227 31.5266C26.4398 32.3058 29.5355 31.9916 30.8385 28.2677C31.8885 25.2696 30.7862 23.5402 28.6203 22.4125C30.1978 22.0487 31.3861 21.0111 31.703 18.8677L31.7022 18.8671L31.7021 18.8674ZM26.1857 26.6027C25.4396 29.6009 20.3916 27.9802 18.7549 27.5738L20.0808 22.2588C21.7173 22.6674 26.9655 23.4759 26.1858 26.6027H26.1857ZM26.9324 18.8239C26.2518 21.5511 22.0503 20.1655 20.6873 19.8258L21.8894 15.0055C23.2523 15.3452 27.6415 15.9793 26.9326 18.8239H26.9324Z" fill="white"/>
</g>
<defs>
<clipPath id="clip0_131_3194">
<rect width="44" height="44.0049" fill="white"/>
</clipPath>
</defs>
</svg>
