<svg width="24" height="17" viewBox="0 0 24 17" fill="none" xmlns="http://www.w3.org/2000/svg">
<path d="M23.2432 5.99904L21.0499 3.1404C20.6027 2.61797 20.2995 2.1817 19.5786 2.1817H15.1603C14.903 2.17879 14.6552 2.27813 14.4711 2.4579C14.287 2.63766 14.1819 2.88314 14.1787 3.1404V13.2225C14.1824 13.4782 14.287 13.722 14.4696 13.9009C14.6522 14.0798 14.8981 14.1794 15.1538 14.1779H15.2694C15.2694 13.3102 15.6141 12.4779 16.2277 11.8643C16.8413 11.2507 17.6736 10.9059 18.5414 10.9059C19.4092 10.9059 20.2414 11.2507 20.855 11.8643C21.4687 12.4779 21.8134 13.3102 21.8134 14.1779H23.0131C23.2701 14.1811 23.5178 14.0822 23.7019 13.9028C23.8859 13.7235 23.9913 13.4784 23.9947 13.2214V7.92952C23.916 7.23172 23.657 6.56642 23.2432 5.99904ZM16.3371 8.7497V4.37067H19.2819C19.4488 4.37067 19.6768 4.62916 19.6768 4.62916L21.8374 7.81936C22.0448 8.09202 22.1818 8.41153 22.2366 8.7497H16.3371Z" fill="#383838"/>
<path d="M12.0802 0.000366961H1.00778C0.749062 -0.00670517 0.498023 0.0886838 0.309288 0.265777C0.120552 0.44287 0.00939309 0.687335 0 0.945975L0 13.2334C0.00939309 13.4921 0.120552 13.7365 0.309288 13.9136C0.498023 14.0907 0.749062 14.1861 1.00778 14.179H3.272C3.272 13.3112 3.61673 12.479 4.23035 11.8654C4.84397 11.2518 5.67621 10.907 6.544 10.907C7.41179 10.907 8.24403 11.2518 8.85765 11.8654C9.47127 12.479 9.816 13.3112 9.816 14.179H12.0802C12.3389 14.1861 12.59 14.0907 12.7787 13.9136C12.9674 13.7365 13.0786 13.4921 13.088 13.2334V0.945975C13.0786 0.687335 12.9674 0.44287 12.7787 0.265777C12.59 0.0886838 12.3389 -0.00670517 12.0802 0.000366961Z" fill="#383838"/>
<path d="M6.54364 11.9976C6.11221 11.9976 5.69047 12.1255 5.33176 12.3652C4.97304 12.6049 4.69345 12.9455 4.52835 13.3441C4.36325 13.7427 4.32005 14.1813 4.40422 14.6044C4.48839 15.0276 4.69614 15.4163 5.0012 15.7213C5.30627 16.0264 5.69494 16.2341 6.11808 16.3183C6.54122 16.4025 6.97981 16.3593 7.3784 16.1942C7.77699 16.0291 8.11766 15.7495 8.35735 15.3908C8.59704 15.0321 8.72497 14.6103 8.72497 14.1789C8.72497 13.6004 8.49515 13.0455 8.08608 12.6365C7.677 12.2274 7.12216 11.9976 6.54364 11.9976Z" fill="#383838"/>
<path d="M18.5417 11.9976C18.1103 11.9976 17.6885 12.1255 17.3298 12.3652C16.9711 12.6049 16.6915 12.9455 16.5264 13.3441C16.3613 13.7427 16.3181 14.1813 16.4023 14.6044C16.4864 15.0276 16.6942 15.4163 16.9993 15.7213C17.3043 16.0264 17.693 16.2341 18.1161 16.3183C18.5393 16.4025 18.9779 16.3593 19.3764 16.1942C19.775 16.0291 20.1157 15.7495 20.3554 15.3908C20.5951 15.0321 20.723 14.6103 20.723 14.1789C20.723 13.6004 20.4932 13.0455 20.0841 12.6365C19.675 12.2274 19.1202 11.9976 18.5417 11.9976Z" fill="#383838"/>
</svg>
