<svg width="32" height="32" viewBox="0 0 32 32" fill="none" xmlns="http://www.w3.org/2000/svg">
<rect width="32" height="32" rx="6" fill="#E0E0E0"/>
<path fill-rule="evenodd" clip-rule="evenodd" d="M20.6568 19.2969C20.464 19.8426 19.6976 20.2941 19.0864 20.4262C18.668 20.515 18.1224 20.5853 16.284 19.8234C14.2192 18.968 11.352 15.9208 11.352 13.893C11.352 12.8607 11.9472 11.6586 12.988 11.6586C13.4888 11.6586 13.5992 11.6684 13.764 12.0637C13.9568 12.5294 14.4272 13.6769 14.4832 13.7945C14.7144 14.2771 14.248 14.5596 13.9096 14.9797C13.8016 15.1061 13.6792 15.2429 13.816 15.4781C13.952 15.7086 14.4224 16.4752 15.1136 17.0906C16.0064 17.8861 16.7304 18.14 16.9896 18.248C17.1824 18.3281 17.4128 18.3094 17.5536 18.159C17.732 17.9661 17.9536 17.6462 18.1792 17.3309C18.3384 17.1052 18.5408 17.077 18.7528 17.157C18.896 17.2066 20.716 18.0519 20.7928 18.1871C20.8496 18.2855 20.8496 18.7511 20.6568 19.2969ZM16.0016 8H15.9976C11.5872 8 8 11.5883 8 16C8 17.7493 8.56401 19.3723 9.52321 20.6887L8.5264 23.6613L11.6008 22.6789C12.8656 23.516 14.3752 24 16.0016 24C20.412 24 24 20.4117 24 16C24 11.5883 20.412 8 16.0016 8Z" fill="#595959"/>
</svg>
