<svg width="160" height="40" viewBox="0 0 160 40" fill="none" xmlns="http://www.w3.org/2000/svg">
<rect width="160" height="40" rx="8" fill="#E0E0E0"/>
<path d="M117 15L118.347 19.1459H122.706L119.18 21.7082L120.527 25.8541L117 23.2918L113.473 25.8541L114.82 21.7082L111.294 19.1459H115.653L117 15Z" fill="#404040"/>
<path d="M126.058 23.3807V22.1236L129.762 16.2727H130.81V18.0625H130.171L127.678 22.0128V22.081H132.847V23.3807H126.058ZM130.222 25V22.9972L130.239 22.4347V16.2727H131.73V25H130.222ZM134.55 25.0938C134.291 25.0938 134.069 25.0028 133.885 24.821C133.7 24.6392 133.609 24.4176 133.612 24.1562C133.609 23.9006 133.7 23.6818 133.885 23.5C134.069 23.3182 134.291 23.2273 134.55 23.2273C134.8 23.2273 135.017 23.3182 135.202 23.5C135.389 23.6818 135.484 23.9006 135.487 24.1562C135.484 24.3295 135.439 24.4872 135.351 24.6293C135.265 24.7713 135.152 24.8849 135.01 24.9702C134.871 25.0526 134.717 25.0938 134.55 25.0938ZM139.584 16.1534C140.001 16.1562 140.407 16.2301 140.802 16.375C141.2 16.517 141.558 16.75 141.876 17.0739C142.194 17.3949 142.447 17.8253 142.635 18.3651C142.822 18.9048 142.916 19.5724 142.916 20.3679C142.919 21.1179 142.839 21.7884 142.677 22.3793C142.518 22.9673 142.29 23.4645 141.991 23.8707C141.693 24.277 141.334 24.5866 140.913 24.7997C140.493 25.0128 140.02 25.1193 139.494 25.1193C138.943 25.1193 138.454 25.0114 138.028 24.7955C137.605 24.5795 137.263 24.2841 137.001 23.9091C136.74 23.5341 136.579 23.1051 136.52 22.6222H138.075C138.155 22.9687 138.317 23.2443 138.561 23.4489C138.808 23.6506 139.119 23.7514 139.494 23.7514C140.099 23.7514 140.565 23.4886 140.892 22.9631C141.219 22.4375 141.382 21.7074 141.382 20.7727H141.322C141.183 21.0227 141.003 21.2386 140.781 21.4205C140.559 21.5994 140.308 21.7372 140.027 21.8338C139.748 21.9304 139.453 21.9787 139.14 21.9787C138.629 21.9787 138.169 21.8565 137.76 21.6122C137.353 21.3679 137.031 21.0327 136.792 20.6065C136.557 20.1804 136.437 19.6932 136.434 19.1449C136.434 18.5767 136.565 18.0668 136.826 17.6151C137.091 17.1605 137.459 16.8026 137.93 16.5412C138.402 16.277 138.953 16.1477 139.584 16.1534ZM139.588 17.4318C139.281 17.4318 139.004 17.5071 138.757 17.6577C138.513 17.8054 138.319 18.0071 138.177 18.2628C138.038 18.5156 137.969 18.7983 137.969 19.1108C137.971 19.4205 138.041 19.7017 138.177 19.9545C138.317 20.2074 138.505 20.4077 138.744 20.5554C138.986 20.7031 139.261 20.777 139.571 20.777C139.801 20.777 140.015 20.733 140.214 20.6449C140.413 20.5568 140.586 20.4347 140.734 20.2784C140.885 20.1193 141.001 19.9389 141.084 19.7372C141.169 19.5355 141.21 19.3224 141.207 19.098C141.207 18.7997 141.136 18.5241 140.994 18.2713C140.855 18.0185 140.663 17.8153 140.419 17.6619C140.177 17.5085 139.9 17.4318 139.588 17.4318Z" fill="#404040"/>
<path fill-rule="evenodd" clip-rule="evenodd" d="M57.001 25.4091H58.8145L61.3373 16.3692V25.4091H63.3628V13.4569H60.5695L58.0468 22.236L55.524 13.4569H52.6722V25.4444H54.4271V16.3692L57.001 25.4091ZM71.867 19.4859C71.867 17.3705 70.7702 16.5807 68.518 16.5807C67.4118 16.5759 66.3234 16.848 65.359 17.3705V19.0628C66.2289 18.5143 67.2448 18.2204 68.284 18.2166C69.3223 18.2166 69.7465 18.5904 69.7465 19.4859V19.9654H69.4175C66.1853 19.9654 64.701 21.0231 64.701 22.7859C64.6632 23.1471 64.7072 23.5117 64.8301 23.8547C64.9529 24.1978 65.1517 24.5109 65.4125 24.7726C65.6733 25.0341 65.99 25.2379 66.3407 25.3697C66.6913 25.5016 67.0675 25.5584 67.443 25.536C67.8482 25.5825 68.259 25.5344 68.6407 25.3957C69.0225 25.2571 69.3641 25.0318 69.6368 24.7392H69.7465C69.7658 24.981 69.8224 25.2187 69.9147 25.4444H71.9986C71.9402 24.7392 71.889 24.0341 71.889 23.3289V19.4859H71.867ZM69.7465 23.35C69.5723 23.5806 69.3414 23.7656 69.0747 23.8887C68.8079 24.0119 68.5136 24.0691 68.2182 24.0552C68.0414 24.0703 67.8633 24.0478 67.6965 23.9894C67.5297 23.931 67.3783 23.8379 67.2528 23.7169C67.1273 23.5959 67.0308 23.4498 66.9702 23.289C66.9096 23.1282 66.8863 22.9565 66.902 22.7859C66.902 21.7847 67.6332 21.4109 69.476 21.4109H69.805V23.3713L69.7465 23.35ZM75.5963 16.7358H73.622V27.8771H75.7572V24.3514C75.9944 24.7166 76.3263 25.0158 76.7198 25.2198C77.1135 25.4238 77.5554 25.5255 78.0022 25.5149C80.0862 25.5149 81.512 23.9283 81.512 21.0161C81.512 18.1038 80.0935 16.5948 78.0606 16.5948C77.5804 16.5904 77.1069 16.704 76.6848 16.9248C76.2626 17.1457 75.9057 17.4665 75.6475 17.857L75.5379 16.7358H75.5963ZM77.3513 23.9847C76.2545 23.9847 75.6475 23.0821 75.6475 21.1218C75.6475 19.1615 76.2545 18.2166 77.461 18.2166C78.6675 18.2166 79.216 19.1122 79.216 21.0372C79.216 22.9622 78.6163 23.9494 77.3513 23.9494V23.9847ZM88.1004 25.395H90.5136L87.1134 20.7411L90.126 16.7217H88.0273L85.0073 20.7411V16.7358H82.8356V25.4091H84.9708V21.1782L88.1004 25.4091V25.395ZM97.6431 24.8168C96.7237 25.3646 95.6505 25.6233 94.5719 25.5572C91.881 25.5572 90.3454 24.0693 90.3454 21.0584C90.3454 18.4141 91.6104 16.5102 94.1844 16.5102C96.3269 16.5102 97.6943 17.6243 97.6943 20.6353V21.7494H92.5756C92.6853 23.2303 93.3069 23.9142 94.8206 23.9142C95.8113 23.9021 96.7798 23.6291 97.6212 23.1245V24.8168H97.6431ZM94.1844 18.2166C93.1972 18.2166 92.6561 18.9218 92.5976 20.2827H95.5226V20.1205C95.5226 19.0628 95.1935 18.2166 94.1478 18.2166H94.1844ZM105.321 18.3788V16.7358H98.1915V18.3718H100.714V25.4233H102.85V18.3718L105.321 18.3788Z" fill="#595959"/>
<path fill-rule="evenodd" clip-rule="evenodd" d="M40.0074 27.5248C41.6341 27.5234 43.2238 27.057 44.5757 26.1845C45.9276 25.3119 46.9809 24.0725 47.6023 22.6229C48.2239 21.1732 48.3858 19.5784 48.0675 18.04C47.7493 16.5016 46.9652 15.0888 45.8144 13.9801C44.6637 12.8713 43.1978 12.1165 41.6023 11.811C40.0067 11.5055 38.353 11.663 36.8503 12.2636C35.3475 12.8642 34.0632 13.881 33.1596 15.1854C32.2559 16.4898 31.7736 18.0233 31.7736 19.5919C31.7717 20.6348 31.9834 21.6678 32.3966 22.6316C32.8098 23.5953 33.4163 24.4709 34.1814 25.208C34.9465 25.945 35.8549 26.5292 36.8547 26.9268C37.8545 27.3243 38.9259 27.5276 40.0074 27.5248Z" fill="#595959"/>
<path fill-rule="evenodd" clip-rule="evenodd" d="M30.6254 19.5917C30.6254 18.0227 30.143 16.489 29.2391 15.1844C28.3351 13.8799 27.0503 12.8631 25.5471 12.2627C24.044 11.6623 22.3899 11.5052 20.7941 11.8112C19.1984 12.1173 17.7325 12.8729 16.5821 13.9823C15.4316 15.0917 14.6481 16.5052 14.3307 18.0441C14.0133 19.5829 14.1762 21.1779 14.7988 22.6274C15.4215 24.077 16.4758 25.3159 17.8287 26.1877C19.1815 27.0593 20.772 27.5246 22.399 27.5246C24.5796 27.5209 26.6698 26.6839 28.2117 25.197C29.7536 23.7101 30.6216 21.6945 30.6254 19.5917Z" fill="#595959"/>
<path fill-rule="evenodd" clip-rule="evenodd" d="M23.6055 16.1014H22.7792C21.3533 16.1014 20.644 16.8066 20.644 17.8431C20.644 19.0137 21.1339 19.5919 22.1796 20.2829L22.9986 20.8611L20.644 24.3868H18.7208L20.973 21.1785C19.6568 20.2829 18.9402 19.4156 18.9402 17.9489C18.9402 16.1014 20.2564 14.8322 22.7792 14.8322H25.3019V24.3517H23.6786V16.1014H23.6055Z" fill="white"/>
<path fill-rule="evenodd" clip-rule="evenodd" d="M35.9414 15.9958L31.9122 21.094C32.1149 22.148 32.5488 23.148 33.1846 24.0274L36.0291 20.3889L35.4514 24.1402L38.4641 25.1416L42.1202 19.5004C41.9521 20.5581 41.6816 23.0261 44.0946 23.7313C44.6971 23.8712 45.3266 23.8611 45.9239 23.7019C46.5212 23.5429 47.0669 23.2399 47.5095 22.8217C48.1955 21.3246 48.3845 19.6595 48.0506 18.0548C46.8733 19.7683 45.7399 20.9741 45.1256 20.8261C44.08 20.5581 45.0159 17.3003 45.6156 15.2695V15.1849L42.303 14.0919L38.3032 20.3889L38.8517 16.9478L35.9267 15.9958H35.9414Z" fill="white"/>
</svg>
