<svg width="32" height="32" viewBox="0 0 32 32" fill="none" xmlns="http://www.w3.org/2000/svg">
<rect width="32" height="32" rx="6" fill="#E0E0E0"/>
<path d="M17.7161 15.7722C17.3321 15.6303 17.3321 15.0886 17.3083 14.7113C17.2123 13.3675 17.6923 11.316 17.1163 10.4438C16.7085 9.92464 14.7402 9.97218 13.5406 10.0431C13.2042 10.0906 12.7964 10.1608 12.5084 10.3027C12.2204 10.4445 11.9324 10.6799 11.9324 10.8919C11.9324 11.1983 12.6528 11.1515 12.9162 11.5521C13.2042 11.9769 13.2042 12.896 13.2042 13.6505C13.2042 14.5227 13.0598 15.6786 12.7004 15.7254C12.1482 15.7488 11.8364 15.2063 11.5484 14.8056C10.9724 14.0277 10.3964 13.0604 9.96404 12.1173C9.74824 11.6223 9.62766 11.0798 9.31586 10.8678C8.83586 10.5373 7.97187 10.5139 7.13169 10.5373C6.3637 10.5607 5.25933 10.4664 5.04353 10.9146C4.87534 11.4095 5.23552 11.8811 5.42752 12.2825C6.41132 14.3809 7.4673 16.2204 8.76367 17.9648C9.96404 19.5916 11.0915 20.8886 13.2994 21.5722C13.9238 21.7608 16.6594 22.3033 17.2116 21.5722C17.4036 21.2893 17.3559 20.6524 17.4519 20.1809C17.5479 19.7093 17.6678 19.2377 18.1239 19.2143C18.5079 19.1909 18.7237 19.5207 18.9641 19.7568C19.2283 20.0164 19.4441 20.2284 19.6361 20.4646C20.0923 20.9128 20.5723 21.5254 21.1483 21.7616C21.9401 22.0921 23.1643 21.9978 24.3162 21.9502C25.2524 21.9268 25.9244 21.7382 25.9966 21.1957C26.045 20.7709 25.5642 20.1582 25.2762 19.8044C24.5559 18.9321 24.2202 18.6726 23.4039 17.8705C23.0437 17.5166 22.5875 17.1394 22.5875 16.7153C22.5637 16.4558 22.7795 16.2204 22.9715 15.9608C23.8117 14.7347 24.6519 13.8625 25.4198 12.5889C25.6357 12.2116 26.1402 11.3394 25.9482 10.9146C25.7324 10.443 24.5321 10.5841 23.7879 10.5841C22.8279 10.5841 21.5799 10.5132 21.3395 10.7018C20.8833 11.0081 20.6913 11.5039 20.4755 11.9754C19.9955 13.0604 19.3473 14.1681 18.6754 14.9935C18.435 15.2765 17.9796 15.8658 17.7154 15.7714L17.7161 15.7722Z" fill="#595959"/>
</svg>
