<svg width="120" height="40" viewBox="0 0 120 40" fill="none" xmlns="http://www.w3.org/2000/svg">
<rect width="120" height="40" rx="8" fill="#E0E0E0"/>
<path d="M21.1233 15.0182H20.1605C18.3941 15.0182 17.4664 15.875 17.4664 17.1417C17.4664 18.5803 18.1087 19.2486 19.4285 20.1047L20.5168 20.807L17.3798 25.3111H15.0405L17.8593 21.2863C16.2355 20.1733 15.3258 19.0942 15.3258 17.2623C15.3258 14.9669 16.9824 13.4086 20.1426 13.4086H23.2796V25.3111H21.1233V15.0182Z" fill="#595959"/>
<path d="M40.7823 16.6976H34.5919V17.4339C34.5919 19.5401 34.4492 22.2634 33.7001 23.702H33.0413V27.2814H35.0041V25.3115H39.7635V27.2814H41.7279V23.702H40.7823V16.6976ZM38.6595 23.6991H35.6622C36.2508 22.3998 36.4091 20.0511 36.4091 18.5613V18.3072H38.6573L38.6595 23.6991Z" fill="#595959"/>
<path d="M30.0248 20.1049H27.1888V16.6965H25.0654V25.3112H27.1888V21.7152H30.0248V25.3112H32.1476V16.6965H30.0248V20.1049Z" fill="#595959"/>
<path d="M62.8835 18.1359C63.7051 18.1359 64.5072 18.4095 64.9352 18.6664V16.9341C64.4871 16.6945 63.7043 16.5227 62.652 16.5227C59.9407 16.5227 58.5313 18.3893 58.5313 21.0101C58.5313 23.8872 59.9048 25.4795 62.7408 25.4795C63.7223 25.4795 64.4176 25.3084 64.9352 24.949V23.2888C64.4004 23.6497 63.7581 23.8713 62.8663 23.8713C61.3494 23.8713 60.7257 22.741 60.7257 20.9603C60.7257 19.0945 61.4927 18.1359 62.8835 18.1359Z" fill="#595959"/>
<path d="M58.2466 16.6965H56.1059L53.1085 20.67V16.6965H50.9859V25.3112H53.1085V21.0815L56.2485 25.3112H58.6566L55.2492 20.67L58.2466 16.6965Z" fill="#595959"/>
<path d="M46.0611 16.5248C43.4746 16.5248 42.2438 18.426 42.2438 21.0288C42.2438 24.0265 43.7779 25.4816 46.4899 25.4816C47.8455 25.4816 48.8442 25.1395 49.4685 24.728V23.0679C48.8083 23.4959 47.7029 23.8727 46.6676 23.8727C45.1163 23.8727 44.527 23.1704 44.4382 21.7318H49.5575V20.6491C49.5575 17.6551 48.1839 16.5248 46.0611 16.5248ZM47.3996 20.224H44.4382C44.4919 18.8526 45.0088 18.1351 46.0261 18.1351C47.0784 18.1351 47.3996 18.9738 47.3996 20.0529V20.224Z" fill="#595959"/>
<path d="M77 15L78.3471 19.1459H82.7063L79.1796 21.7082L80.5267 25.8541L77 23.2918L73.4733 25.8541L74.8204 21.7082L71.2937 19.1459H75.6529L77 15Z" fill="#404040"/>
<path d="M89.467 25.1193C88.8988 25.1193 88.3903 25.0128 87.9414 24.7997C87.4926 24.5838 87.136 24.2884 86.8718 23.9134C86.6105 23.5384 86.4713 23.1094 86.4542 22.6264H87.9883C88.0167 22.9844 88.1715 23.277 88.4528 23.5043C88.734 23.7287 89.0721 23.8409 89.467 23.8409C89.7767 23.8409 90.0522 23.7699 90.2937 23.6278C90.5352 23.4858 90.7255 23.2884 90.8647 23.0355C91.0039 22.7827 91.0721 22.4943 91.0693 22.1705C91.0721 21.8409 91.0025 21.5483 90.8605 21.2926C90.7184 21.0369 90.5238 20.8366 90.2767 20.6918C90.0295 20.544 89.7454 20.4702 89.4244 20.4702C89.163 20.4673 88.9059 20.5156 88.6531 20.6151C88.4002 20.7145 88.2 20.8452 88.0522 21.0071L86.6247 20.7727L87.0806 16.2727H92.1431V17.5938H88.3889L88.1375 19.9077H88.1886C88.3505 19.7173 88.5792 19.5597 88.8747 19.4347C89.1701 19.3068 89.494 19.2429 89.8463 19.2429C90.3747 19.2429 90.8463 19.3679 91.261 19.6179C91.6758 19.8651 92.0025 20.206 92.2412 20.6406C92.4798 21.0753 92.5991 21.5724 92.5991 22.1321C92.5991 22.7088 92.4656 23.223 92.1985 23.6747C91.9343 24.1236 91.5664 24.4773 91.0948 24.7358C90.6261 24.9915 90.0835 25.1193 89.467 25.1193ZM94.321 25.0938C94.0625 25.0938 93.8409 25.0028 93.6562 24.821C93.4716 24.6392 93.3807 24.4176 93.3835 24.1562C93.3807 23.9006 93.4716 23.6818 93.6562 23.5C93.8409 23.3182 94.0625 23.2273 94.321 23.2273C94.571 23.2273 94.7884 23.3182 94.973 23.5C95.1605 23.6818 95.2557 23.9006 95.2585 24.1562C95.2557 24.3295 95.2102 24.4872 95.1222 24.6293C95.0369 24.7713 94.9233 24.8849 94.7812 24.9702C94.642 25.0526 94.4886 25.0938 94.321 25.0938ZM99.3402 25.1662C98.6385 25.1662 98.0362 24.9886 97.5334 24.6335C97.0334 24.2756 96.6484 23.7599 96.3785 23.0866C96.1115 22.4105 95.978 21.5966 95.978 20.6449C95.9808 19.6932 96.1157 18.8835 96.3828 18.2159C96.6527 17.5455 97.0376 17.0341 97.5376 16.6818C98.0405 16.3295 98.6413 16.1534 99.3402 16.1534C100.039 16.1534 100.64 16.3295 101.143 16.6818C101.646 17.0341 102.031 17.5455 102.298 18.2159C102.567 18.8864 102.702 19.696 102.702 20.6449C102.702 21.5994 102.567 22.4148 102.298 23.0909C102.031 23.7642 101.646 24.2784 101.143 24.6335C100.643 24.9886 100.042 25.1662 99.3402 25.1662ZM99.3402 23.8324C99.8856 23.8324 100.316 23.5639 100.631 23.027C100.95 22.4872 101.109 21.6932 101.109 20.6449C101.109 19.9517 101.036 19.3693 100.891 18.8977C100.746 18.4261 100.542 18.071 100.278 17.8324C100.013 17.5909 99.701 17.4702 99.3402 17.4702C98.7976 17.4702 98.3686 17.7401 98.0532 18.2798C97.7379 18.8168 97.5788 19.6051 97.576 20.6449C97.5731 21.3409 97.6427 21.9261 97.7848 22.4006C97.9297 22.875 98.1342 23.233 98.3984 23.4744C98.6626 23.7131 98.9765 23.8324 99.3402 23.8324Z" fill="#404040"/>
</svg>
