<svg width="32" height="32" viewBox="0 0 32 32" fill="none" xmlns="http://www.w3.org/2000/svg">
<rect width="32" height="32" rx="6" fill="#E0E0E0"/>
<path d="M16 8C14.4178 8 12.871 8.46919 11.5554 9.34824C10.2398 10.2273 9.21447 11.4767 8.60897 12.9385C8.00347 14.4003 7.84504 16.0089 8.15372 17.5607C8.4624 19.1126 9.22433 20.538 10.3431 21.6569C11.462 22.7757 12.8874 23.5376 14.4393 23.8463C15.9911 24.155 17.5997 23.9965 19.0615 23.391C20.5233 22.7855 21.7727 21.7602 22.6518 20.4446C23.5308 19.129 24 17.5823 24 16C24 13.8783 23.1571 11.8434 21.6569 10.3432C20.1566 8.84285 18.1217 8 16 8ZM19.93 13.48L18.62 19.67C18.52 20.11 18.26 20.21 17.89 20.01L15.89 18.53L14.89 19.46C14.8429 19.5215 14.7824 19.5715 14.7131 19.6062C14.6438 19.6408 14.5675 19.6592 14.49 19.66L14.63 17.66L18.33 14.31C18.5 14.17 18.33 14.09 18.09 14.23L13.55 17.08L11.55 16.46C11.12 16.33 11.11 16.03 11.64 15.83L19.35 12.83C19.73 12.72 20.05 12.94 19.93 13.48Z" fill="#595959"/>
</svg>
