<svg width="113" height="14" viewBox="0 0 113 14" fill="none" xmlns="http://www.w3.org/2000/svg">
<path d="M2.80375 0.511657C2.23506 0.804042 1.55631 1.35227 1.2261 1.80912C0.657417 2.54008 0.620728 2.68628 0.620728 4.05683C0.620728 5.26293 0.694106 5.64668 1.02431 6.19491C1.51962 7.01724 1.77644 7.23653 2.82209 7.72993C3.61092 8.09541 3.97781 8.13196 9.88481 8.22333C13.3153 8.27815 16.2321 8.3878 16.3605 8.4609C16.7274 8.71673 16.9659 9.50252 16.8558 10.0873C16.6173 11.1289 16.4339 11.1472 8.14206 11.1472H0.620728V12.4264V13.7056H8.32551C13.9757 13.7056 16.2321 13.6507 16.7824 13.468C18.0115 13.1025 19.0021 12.0974 19.3874 10.8183C19.7176 9.74008 19.7176 9.70354 19.3507 8.49744C18.9471 7.23653 18.837 7.07206 17.6813 6.32282C16.599 5.62841 15.2415 5.48221 9.64633 5.48221C5.29863 5.48221 4.3447 5.42739 3.83105 5.18983C2.85878 4.73298 2.7854 3.59998 3.72098 2.97866C4.16126 2.68628 4.8767 2.64973 11.9027 2.55836L19.6075 2.46699V1.27917V0.0913515L11.7009 0.0365295L3.79436 -1.90735e-05L2.80375 0.511657Z" fill="#404040"/>
<path d="M23.9918 0.255819C23.9368 0.383738 23.9184 0.950235 23.9551 1.48018L24.0102 2.46699L28.046 2.55836L32.0818 2.64973L32.1369 8.16851L32.1736 13.7056H33.4577H34.7418L34.7785 8.16851L34.8335 2.64973L38.8143 2.59491L42.7768 2.55836L42.9052 1.46191C42.9786 0.877139 42.9786 0.292367 42.9052 0.200996C42.8318 0.0548038 39.7866 -1.90735e-05 33.4393 -1.90735e-05C25.6979 -1.90735e-05 24.0652 0.0365295 23.9918 0.255819Z" fill="#404040"/>
<path d="M70.5142 6.94418V13.7239L71.7616 13.6691L72.9907 13.6142L73.0457 11.0559C73.0824 9.30154 73.1558 8.46093 73.3209 8.36956C73.4493 8.29647 74.5683 8.22337 75.8525 8.22337C78.274 8.22337 78.5858 8.31474 78.5858 9.06398C78.5858 9.28327 78.7142 9.55738 78.861 9.6853C79.0078 9.81322 79.1362 10.0142 79.1362 10.1422C79.1362 10.2518 79.3013 10.5442 79.4847 10.7635C79.6865 11.001 79.87 11.2569 79.9067 11.33C80.0351 11.6772 81.9246 12.7736 82.8418 13.0295C84.4378 13.4863 86.309 13.7422 87.6665 13.6691L88.9506 13.6142L89.0056 12.3899L89.0607 11.1838L87.1712 11.0924C84.8414 10.9828 83.8691 10.7817 82.7501 10.2518C81.8695 9.83149 81.2275 8.97261 81.4109 8.49748C81.466 8.33301 82.1814 8.24164 84.0342 8.18682C86.0154 8.132 86.7125 8.04063 87.2078 7.78479C88.1434 7.30966 89.0056 6.41423 89.134 5.82946C89.2074 5.53707 89.3358 5.26296 89.4276 5.20814C89.8311 4.9523 89.3909 2.64976 88.7855 1.8457C88.6754 1.69951 88.1251 1.29748 87.5747 0.931997L86.5658 0.27413L78.5491 0.219307L70.5142 0.164485V6.94418ZM86.2356 3.07007C87.0611 3.5452 86.9877 4.98885 86.1072 5.42743C85.4651 5.75636 73.6328 5.77464 73.3026 5.4457C73.1741 5.31778 73.0824 4.75129 73.0824 4.16652C73.0824 3.36245 73.1558 3.08834 73.4126 2.92388C73.8896 2.63149 85.7036 2.75941 86.2356 3.07007Z" fill="#404040"/>
<path d="M93.9587 0.365465C93.9403 0.456836 93.922 3.50861 93.9587 7.12689L93.9954 13.7056H103.425H112.854L112.927 12.5177C112.945 11.8599 112.982 11.3117 112.982 11.2934C112.982 11.2751 109.277 11.202 104.727 11.1472L96.4719 11.0558V9.77663V8.49744L101.847 8.44262L107.204 8.40607V7.52892C107.204 7.05379 107.259 6.48729 107.314 6.24973L107.424 5.8477H102.214C98.2697 5.8477 96.9305 5.79288 96.6737 5.61014C96.4169 5.42739 96.3802 5.15328 96.4169 4.20303L96.4719 3.01521L97.5726 2.86902C98.178 2.77765 101.774 2.75937 105.571 2.79592C109.368 2.85074 112.56 2.83247 112.689 2.75937C112.835 2.668 112.89 2.21115 112.854 1.44364L112.799 0.274095L103.406 0.219272C97.2424 0.200998 94.0137 0.237546 93.9587 0.365465Z" fill="#404040"/>
<path d="M50.1882 0.694361C48.9591 1.0233 47.8218 1.90045 47.6933 2.63142C47.1797 5.33599 47.1063 7.69335 47.4732 10.1055C47.73 11.8233 48.0419 12.3532 49.1426 12.938C50.3717 13.5959 51.2522 13.6873 56.5722 13.6873C61.085 13.6873 61.9655 13.6507 63.0295 13.3583C64.6072 12.938 65.0658 12.6274 65.6895 11.5675L66.2032 10.6903V6.85274V3.01517L65.7078 2.15629C65.341 1.55324 64.9557 1.18776 64.332 0.877102C63.4698 0.456798 63.3414 0.456798 57.3977 0.420249C52.1878 0.383701 51.1788 0.420249 50.1882 0.694361ZM63.1396 3.28929L63.745 3.65477L63.6899 6.85274C63.6349 9.59385 63.5982 10.0873 63.323 10.3614C62.6443 11.0192 61.617 11.1472 56.4621 11.1472C51.0504 11.1472 50.3166 11.0375 50.0782 10.1969C49.9497 9.66695 49.9314 4.42228 50.0782 3.89233C50.1882 3.50857 50.7569 3.19792 51.6191 3.05172C51.8759 3.01517 54.4259 2.96035 57.306 2.94208C62.259 2.9238 62.5709 2.94208 63.1396 3.28929Z" fill="#404040"/>
</svg>
