<svg width="43" height="14" viewBox="0 0 43 14" fill="none" xmlns="http://www.w3.org/2000/svg">
<path d="M0.34855 0.0437078C0.0550341 0.135078 0.0183447 0.482286 0.0183447 4.15538V8.15741H1.7244C2.64164 8.15741 6.18217 8.21224 9.55759 8.26706C16.4919 8.39498 16.5286 8.39498 16.5286 9.60107C16.5286 10.0762 16.4002 10.4051 16.1433 10.6427C15.7765 10.9716 15.2995 10.9899 7.92492 11.0813L0.110068 11.1726L0.0550341 12.397L0 13.6396H7.99829H15.9966L16.8588 13.1828C18.6566 12.2508 19.0968 11.5564 19.0968 9.63762C19.0968 7.93813 18.6749 7.11579 17.3724 6.27518L16.4552 5.69041L9.64932 5.59904L2.86177 5.50767L2.80674 4.24675C2.77005 3.35132 2.82509 2.93102 2.99019 2.83965C3.1186 2.74828 6.80589 2.67518 11.1719 2.67518H19.1152L19.0602 1.37772L19.0051 0.0619822L9.83277 0.00716019C4.78797 -0.0111139 0.513652 0.00715962 0.34855 0.0437078Z" fill="#0065FF" fill-opacity="0.9"/>
<path d="M30.7458 0.390952C30.654 0.409227 30.067 0.537145 29.4616 0.665064C26.8383 1.23156 24.6553 2.91278 23.8848 4.99603C22.5457 8.57776 24.6186 11.9402 28.948 13.2194C29.8469 13.4935 30.9659 13.5483 36.1941 13.6031L42.3763 13.658L42.4864 13.2377C42.5414 13.0001 42.5598 11.2458 42.5414 9.34527L42.4864 5.87319L38.4138 5.81836L34.323 5.78182V6.95136C34.323 7.84679 34.3964 8.13918 34.6165 8.23055C34.7816 8.28537 35.8823 8.34019 37.0747 8.34019C38.2671 8.34019 39.3678 8.39501 39.5329 8.44984C39.753 8.54121 39.8264 8.83359 39.8264 9.72902C39.8264 10.8437 39.808 10.9168 39.3311 11.0996C38.634 11.3737 30.9842 11.191 30.1037 10.8803C29.7551 10.7524 29.0947 10.5331 28.6361 10.3686C28.1958 10.2224 27.5171 9.78385 27.1502 9.40009C25.6826 7.90161 25.811 5.72699 27.4621 4.39298C28.9847 3.15034 29.9202 2.98588 36.6161 2.87623L42.4864 2.76659V1.57877V0.390952L36.7078 0.354404C33.5342 0.33613 30.8558 0.354404 30.7458 0.390952Z" fill="#0065FF" fill-opacity="0.9"/>
</svg>
