<svg width="15" height="14" viewBox="0 0 15 14" fill="none" xmlns="http://www.w3.org/2000/svg">
<path d="M10.8601 13.5424C10.1025 13.5424 9.30479 13.3723 8.48023 13.0448C7.67579 12.7236 6.86463 12.2826 6.07359 11.7472C5.28925 11.2055 4.53173 10.6009 3.81443 9.93949C3.10383 9.26552 2.46027 8.55376 1.89046 7.8231C1.31393 7.06724 0.851375 6.31139 0.522892 5.58073C0.174297 4.79968 0 4.04382 0 3.33206C0 2.84075 0.0938524 2.37464 0.274853 1.94003C0.462558 1.49281 0.764227 1.07709 1.17315 0.718062C1.68934 0.239354 2.27927 0 2.90942 0C3.17087 0 3.43902 0.0566891 3.66695 0.15747C3.92839 0.270848 4.14962 0.440915 4.31051 0.667672L5.86577 2.72738C6.00655 2.91004 6.11381 3.08641 6.18755 3.26277C6.2747 3.45174 6.32163 3.6407 6.32163 3.82337C6.32163 4.06272 6.24789 4.29577 6.10711 4.51623C6.00655 4.6863 5.85237 4.86897 5.65796 5.05163L5.2021 5.49884C5.20881 5.51774 5.21551 5.53034 5.22222 5.54294C5.30266 5.67521 5.46355 5.90197 5.77192 6.2421C6.10041 6.59483 6.40878 6.91607 6.71715 7.21211C7.11267 7.57744 7.44115 7.86719 7.74953 8.10654C8.13164 8.40888 8.37968 8.56006 8.52716 8.62934L8.51375 8.66084L9.00313 8.20732C9.21094 8.01206 9.41205 7.86719 9.60646 7.77271C9.97517 7.55855 10.4444 7.52075 10.9137 7.70342C11.088 7.77271 11.2757 7.86719 11.4768 7.99946L13.7025 9.48598C13.9505 9.64345 14.1315 9.84501 14.2387 10.0844C14.3393 10.3237 14.3862 10.5442 14.3862 10.7646C14.3862 11.067 14.3125 11.3693 14.1717 11.6528C14.0309 11.9362 13.8566 12.1819 13.6354 12.4086C13.2533 12.8054 12.8377 13.0889 12.355 13.2715C11.8924 13.4479 11.3897 13.5424 10.8601 13.5424ZM8.51375 8.66714L8.52716 8.62934L8.58749 8.65454C8.55398 8.64824 8.52716 8.65454 8.51375 8.66714Z" fill="#A5A5A5"/>
</svg>
