<svg width="17" height="16" viewBox="0 0 17 16" fill="none" xmlns="http://www.w3.org/2000/svg">
<path d="M5.63236 0.25955C0.946505 1.786 -1.14793 5.79738 0.627014 9.73776C0.982003 10.5187 1.72748 11.5482 2.29546 11.9742L3.32493 12.7907L2.54396 14.1751L1.79848 15.5596H2.72145C3.25393 15.5596 4.2124 15.2401 4.88688 14.8141C6.63816 14.3112 6.80382 14.0686 8.47227 14.0331C16.282 13.7491 19.0864 5.2294 12.6611 1.25352C10.8862 0.153054 7.44281 -0.343931 5.63236 0.25955ZM5.13538 6.72035C5.49037 7.32383 4.67389 7.99831 4.17691 7.50133C3.75092 7.07534 4.03491 6.32986 4.56739 6.32986C4.74489 6.32986 4.99338 6.50736 5.13538 6.72035ZM8.68527 6.72035C9.04026 7.32383 8.22378 7.99831 7.7268 7.50133C7.30081 7.07534 7.5848 6.32986 8.11728 6.32986C8.29478 6.32986 8.54327 6.50736 8.68527 6.72035ZM12.2352 6.72035C12.5901 7.32383 11.7737 7.99831 11.2767 7.50133C10.8507 7.07534 11.1347 6.32986 11.6672 6.32986C11.8447 6.32986 12.0932 6.50736 12.2352 6.72035Z" fill="#A6A6A6"/>
</svg>
