<svg width="25" height="23" viewBox="0 0 25 23" fill="none" xmlns="http://www.w3.org/2000/svg">
<path d="M23.976 9.61092L22.8132 6.00012V4.81572C22.8132 4.49746 22.6868 4.19224 22.4617 3.96719C22.2367 3.74215 21.9315 3.61572 21.6132 3.61572H2.41322C2.09496 3.61572 1.78973 3.74215 1.56469 3.96719C1.33965 4.19224 1.21322 4.49746 1.21322 4.81572V6.00012L0.0504184 9.59172C0.00160731 9.73165 -0.012038 9.88144 0.0106849 10.0279C0.0334078 10.1743 0.0918014 10.3129 0.18072 10.4315C0.269639 10.5501 0.386353 10.6449 0.520578 10.7077C0.654804 10.7706 0.80242 10.7994 0.950418 10.7917C1.03952 10.7834 1.12757 10.7661 1.21322 10.7401V21.6001C1.21322 21.9184 1.33965 22.2236 1.56469 22.4487C1.78973 22.6737 2.09496 22.8001 2.41322 22.8001H14.4132V13.2001H20.4132V22.8001H21.6132C21.9315 22.8001 22.2367 22.6737 22.4617 22.4487C22.6868 22.2236 22.8132 21.9184 22.8132 21.6001V10.7593C22.8989 10.7849 22.987 10.8018 23.076 10.8097C23.2237 10.8167 23.3708 10.7875 23.5046 10.7246C23.6384 10.6616 23.7548 10.5669 23.8435 10.4487C23.9323 10.3305 23.9908 10.1923 24.0139 10.0463C24.037 9.90024 24.024 9.75078 23.976 9.61092ZM7.21322 6.00012H9.61322L9.17162 9.60012C9.12564 9.9274 8.96491 10.2277 8.71809 10.4475C8.47127 10.6673 8.15441 10.7922 7.82402 10.8001C7.67174 10.8041 7.52044 10.7745 7.38087 10.7135C7.24131 10.6524 7.11688 10.5614 7.01644 10.4469C6.916 10.3324 6.842 10.1971 6.79968 10.0508C6.75737 9.90444 6.74779 9.75058 6.77162 9.60012L7.21322 6.00012ZM2.71562 9.60012L3.61322 6.00012H6.01322L5.11562 9.60012C5.02227 9.93138 4.82682 10.2247 4.55707 10.4385C4.28733 10.6522 3.95704 10.7754 3.61322 10.7905C3.46565 10.7974 3.31863 10.7681 3.18502 10.7051C3.0514 10.642 2.93525 10.5473 2.84671 10.429C2.75816 10.3108 2.69992 10.1726 2.67707 10.0267C2.65422 9.88071 2.66745 9.73138 2.71562 9.59172V9.60012ZM12.0132 19.2001H3.61322V13.2001H12.0132V19.2001ZM13.2132 9.58812C13.2132 9.90638 13.0868 10.2116 12.8617 10.4366C12.6367 10.6617 12.3315 10.7881 12.0132 10.7881C11.695 10.7881 11.3897 10.6617 11.1647 10.4366C10.9396 10.2116 10.8132 9.90638 10.8132 9.58812V6.00012H13.2132V9.58812ZM16.2024 10.7881C15.872 10.7802 15.5552 10.6553 15.3083 10.4355C15.0615 10.2157 14.9008 9.9154 14.8548 9.58812L14.4132 6.00012H16.8132L17.2548 9.60012C17.2771 9.74986 17.2663 9.90266 17.2233 10.0478C17.1803 10.193 17.1061 10.3269 17.0058 10.4404C16.9055 10.5538 16.7816 10.6439 16.6429 10.7044C16.5041 10.7649 16.3538 10.7943 16.2024 10.7905V10.7881ZM20.4024 10.7881C20.058 10.7716 19.7276 10.6467 19.4584 10.4312C19.1892 10.2157 18.9951 9.9206 18.9036 9.58812L18.0132 6.00012H20.4132L21.3108 9.60012C21.3573 9.7393 21.3692 9.88768 21.3455 10.0325C21.3219 10.1773 21.2633 10.3142 21.175 10.4313C21.0867 10.5485 20.9712 10.6424 20.8384 10.705C20.7057 10.7675 20.5598 10.7969 20.4132 10.7905L20.4024 10.7881Z" fill="#383838"/>
<path d="M2.41289 2.4H21.6129C21.9312 2.4 22.2364 2.27357 22.4614 2.04853C22.6865 1.82348 22.8129 1.51826 22.8129 1.2C22.8129 0.88174 22.6865 0.576516 22.4614 0.351472C22.2364 0.126428 21.9312 0 21.6129 0L2.41289 0C2.09463 0 1.78941 0.126428 1.56436 0.351472C1.33932 0.576516 1.21289 0.88174 1.21289 1.2C1.21289 1.51826 1.33932 1.82348 1.56436 2.04853C1.78941 2.27357 2.09463 2.4 2.41289 2.4Z" fill="#383838"/>
</svg>
