<svg width="13" height="12" viewBox="0 0 13 12" fill="none" xmlns="http://www.w3.org/2000/svg">
<path d="M6.04995 0.461572C6.19973 0.0011439 6.85111 0.0011419 7.0009 0.46157L8.10265 3.84828C8.16964 4.0542 8.36157 4.1936 8.57812 4.1936H12.1422C12.6267 4.1936 12.828 4.81372 12.4358 5.09828L9.5535 7.18985C9.37804 7.31717 9.30462 7.54306 9.37169 7.74921L10.4729 11.1342C10.6227 11.5948 10.0957 11.978 9.70375 11.6936L6.81908 9.60029C6.64394 9.4732 6.40691 9.4732 6.23177 9.60029L3.34709 11.6936C2.95512 11.978 2.42814 11.5948 2.57796 11.1342L3.67916 7.74921C3.74623 7.54306 3.6728 7.31717 3.49735 7.18985L0.615024 5.09828C0.222883 4.81372 0.424173 4.1936 0.908683 4.1936H4.47273C4.68927 4.1936 4.88121 4.0542 4.9482 3.84828L6.04995 0.461572Z" fill="#FF9600"/>
</svg>
