<svg width="44" height="44" viewBox="0 0 44 44" fill="none" xmlns="http://www.w3.org/2000/svg">
<path d="M22 44C34.1503 44 44 34.1503 44 22C44 9.84974 34.1503 0 22 0C9.84974 0 0 9.84974 0 22C0 34.1503 9.84974 44 22 44Z" fill="#26A17B"/>
<path fill-rule="evenodd" clip-rule="evenodd" d="M24.6427 23.9017V23.899C24.4915 23.91 23.7118 23.9567 21.9725 23.9567C20.5837 23.9567 19.6061 23.9155 19.2624 23.899V23.9031C13.9163 23.668 9.9261 22.7371 9.9261 21.6233C9.9261 20.511 13.9163 19.5801 19.2624 19.3408V22.9763C19.6116 23.0011 20.6126 23.0602 21.9958 23.0602C23.6555 23.0602 24.4874 22.9915 24.6427 22.9777V19.3436C29.9777 19.5815 33.9583 20.5123 33.9583 21.6233C33.9583 22.7371 29.9777 23.6652 24.6427 23.9017ZM24.6427 18.9655V15.7122H32.087V10.7512H11.8181V15.7122H19.2624V18.9641C13.2123 19.2418 8.66248 20.4408 8.66248 21.8763C8.66248 23.3118 13.2123 24.5095 19.2624 24.7886V35.2138H24.6427V24.7858C30.6831 24.5081 35.222 23.3105 35.222 21.8763C35.222 20.4422 30.6831 19.2446 24.6427 18.9655Z" fill="white"/>
</svg>
