<svg width="32" height="32" viewBox="0 0 32 32" fill="none" xmlns="http://www.w3.org/2000/svg">
<rect width="32" height="32" rx="6" fill="#E0E0E0"/>
<path fill-rule="evenodd" clip-rule="evenodd" d="M14.3908 18.2167V13.4065C15.9845 14.2101 17.2189 14.9863 18.6788 15.8231C17.4747 16.5386 15.9845 17.3414 14.3908 18.2167ZM23.2728 11.0142C22.9979 10.6262 22.5293 10.3241 22.0305 10.2241C20.5642 9.92574 11.4168 9.92489 9.95132 10.2241C9.55129 10.3044 9.19507 10.4986 8.88907 10.8004C7.59971 12.0826 8.00373 18.9586 8.31452 20.0724C8.44521 20.5545 8.61415 20.9022 8.82692 21.1304C9.10105 21.4322 9.47637 21.64 9.90749 21.7331C11.1148 22.0007 17.3344 22.1503 22.005 21.7733C22.4353 21.693 22.8162 21.4785 23.1166 21.1639C24.3087 19.8869 24.2275 12.6247 23.2728 11.0142Z" fill="#595959"/>
</svg>
